<svg width="24" height="26" viewBox="0 0 24 26" fill="none" xmlns="http://www.w3.org/2000/svg">
    <path d="M5.06769 10.5937C4.44091 10.9053 4.3013 11.6843 4.58509 12.4939C4.81073 13.1376 4.20402 13.132 3.18315 12.4807C-2.22585 8.93307 -0.340952 0.702926 5.82177 0.0243854C5.89672 0.0161331 6.15561 0.00437334 6.35198 0H23.6866C23.8597 0 24 0.139499 24 0.31158V10.1663C24 10.3384 23.8597 10.4779 23.6866 10.4779H5.93877C5.69446 10.4779 5.32441 10.4779 5.06769 10.5937Z" fill="#377E95"/>
    <path d="M18.9323 15.3522C19.5591 15.0406 19.6987 14.2617 19.4149 13.452C19.1893 12.8083 19.796 12.8139 20.8168 13.4653C26.2258 17.0129 24.341 25.243 18.1782 25.9216C18.1033 25.9298 17.8444 25.9416 17.648 25.9459H0.313425C0.140345 25.9459 3.67855e-05 25.8064 3.67855e-05 25.6344V15.7796C3.67855e-05 15.6075 0.140345 15.468 0.313425 15.468H18.0612C18.3055 15.468 18.6756 15.468 18.9323 15.3522Z" fill="#377E95"/>
</svg>
